<?xml version="1.0" standalone="no"?><!DOCTYPE svg PUBLIC "-//W3C//DTD SVG 1.1//EN" "http://www.w3.org/Graphics/SVG/1.1/DTD/svg11.dtd"><svg t="1702351809510" class="icon" viewBox="0 0 1024 1024" version="1.1" xmlns="http://www.w3.org/2000/svg" p-id="1161" xmlns:xlink="http://www.w3.org/1999/xlink" width="48" height="48"><path d="M492.288 927.04h-391.04a33.28 33.28 0 0 1-33.984-32.576V627.072a33.28 33.28 0 0 1 33.92-32.576 33.28 33.28 0 0 1 33.984 32.64v234.752h326.656c7.488 23.04 17.792 44.864 30.464 65.152z m493.12-617.408c7.68 15.552 12.416 32.768 12.352 51.2 0 66.048-55.872 119.552-124.736 119.552-68.928 0-124.8-53.504-124.8-119.616 0 66.112-55.808 119.68-124.672 119.68-68.8 0-124.672-53.504-124.736-119.552 0 66.048-55.872 119.488-124.672 119.488-68.864 0-124.736-53.504-124.736-119.616 0 66.112-55.808 119.68-124.672 119.68C55.808 480.384 0 426.88 0 360.704a115.2 115.2 0 0 1 12.352-51.136l69.12-169.856h834.752l69.12 169.856zM78.272 89.28A25.6 25.6 0 0 1 103.488 64H895.36c13.888 0 25.216 11.712 25.216 25.28a25.6 25.6 0 0 1-25.216 25.216H103.488a25.472 25.472 0 0 1-25.216-25.216zM768 1024a256 256 0 1 1 0-512 256 256 0 0 1 0 512z m117.44-259.456a21.504 21.504 0 0 0 21.888-21.184 21.568 21.568 0 0 0-21.888-21.248h-56.64l56.512-54.848a20.8 20.8 0 0 0 0-30.08 22.4 22.4 0 0 0-30.912 0l-80.192 77.952-80.256-77.952a22.4 22.4 0 0 0-30.912 0 20.8 20.8 0 0 0 0 30.08l56.512 54.848h-52.928a21.568 21.568 0 0 0-21.888 21.248c0 11.712 9.856 21.184 21.888 21.184h87.488v42.432h-87.488a21.568 21.568 0 0 0-21.888 21.248c0 11.712 9.792 21.248 21.888 21.248h87.488v49.536c0 11.712 9.792 21.184 21.888 21.184a21.568 21.568 0 0 0 21.952-21.184v-49.536h87.488a21.568 21.568 0 0 0 21.888-21.248 21.504 21.504 0 0 0-21.888-21.248h-87.488v-42.432h87.488z" fill="#ff9900" p-id="1162"></path></svg>